# xmcd CD database file
#
# Track frame offsets:
#	150
#	18413
#	33994
#	62447
#	75413
#	90774
#	114580
#	130383
#	150383
#
# Disc length: 2303 seconds
#
# Revision: 0
# Processed by: cddbd v1.5.2PL0 Copyright (c) Steve Scherf et al.
# Submitted via: CDex 1.51
#
DISCID=5908fd09
DTITLE=Robin Guthrie and Harold Budd - After The Night Falls
DYEAR=2007
DGENRE=New Age
TTITLE0=How Distant Your Heart
TTITLE1=Avenue Of Shapes
TTITLE2=Seven Thousand Sunny Years
TTITLE3=She Is My Strength
TTITLE4=Inside, A Golden Echo
TTITLE5=Open Book
TTITLE6=And Then I Turned Away
TTITLE7=The Girl With Colorful Thoughts
TTITLE8=Turn Off The Sun
EXTD=YEAR: 2007
EXTT0=
EXTT1=
EXTT2=
EXTT3=
EXTT4=
EXTT5=
EXTT6=
EXTT7=
EXTT8=
PLAYORDER=
